<?xml version="1.0" standalone="no"?>
<!DOCTYPE svg PUBLIC "-//W3C//DTD SVG 20010904//EN"
 "http://www.w3.org/TR/2001/REC-SVG-20010904/DTD/svg10.dtd">
<svg version="1.0" xmlns="http://www.w3.org/2000/svg"
 width="512.000000pt" height="512.000000pt" viewBox="0 0 512.000000 512.000000"
 preserveAspectRatio="xMidYMid meet">

<g transform="translate(0.000000,512.000000) scale(0.100000,-0.100000)"
fill="#000000" stroke="none">
<path d="M1695 5113 c-312 -8 -532 -39 -725 -103 -532 -174 -849 -576 -935
-1183 -28 -196 -38 -641 -32 -1477 3 -446 10 -856 16 -920 56 -601 297 -1007
730 -1229 195 -100 418 -158 705 -183 199 -18 2013 -18 2212 0 456 40 784 172
1023 413 242 243 373 567 413 1023 18 199 18 2013 0 2212 -56 635 -300 1042
-757 1264 -251 123 -441 162 -866 180 -211 8 -1493 11 -1784 3z m1734 -463
c367 -14 519 -41 688 -120 192 -90 315 -210 409 -400 113 -229 134 -474 134
-1570 0 -669 -12 -1067 -35 -1224 -74 -495 -344 -766 -837 -840 -185 -28 -658
-39 -1453 -33 -740 6 -901 12 -1062 42 -451 84 -708 359 -778 830 -23 159 -35
555 -35 1225 0 669 12 1067 35 1224 39 260 131 455 280 594 196 184 422 254
878 271 303 12 1486 12 1776 1z"/>
<path d="M3792 4200 c-113 -57 -167 -145 -167 -275 0 -94 22 -150 86 -214 64
-64 120 -86 214 -86 130 0 218 54 275 167 24 50 30 74 30 128 0 97 -23 155
-89 221 -66 66 -124 89 -221 89 -54 0 -78 -6 -128 -30z"/>
<path d="M2326 3854 c-252 -46 -487 -168 -677 -351 -204 -198 -336 -445 -384
-717 -20 -115 -20 -337 0 -452 48 -272 180 -519 384 -717 150 -145 302 -238
494 -302 141 -47 257 -65 417 -65 369 0 687 134 943 399 145 150 238 302 302
494 47 141 65 257 65 417 0 355 -122 658 -367 911 -198 204 -445 336 -717 384
-111 19 -352 19 -460 -1z m404 -458 c167 -35 308 -112 431 -235 167 -168 249
-364 249 -601 0 -237 -82 -433 -249 -601 -179 -178 -378 -255 -636 -246 -113
3 -143 8 -225 36 -131 44 -238 110 -335 206 -129 127 -205 265 -242 440 -23
110 -13 306 22 415 96 301 331 516 640 585 79 18 263 18 345 1z"/>
</g>
</svg>
