<?xml version="1.0" standalone="no"?>
<!DOCTYPE svg PUBLIC "-//W3C//DTD SVG 20010904//EN"
 "http://www.w3.org/TR/2001/REC-SVG-20010904/DTD/svg10.dtd">
<svg version="1.0" xmlns="http://www.w3.org/2000/svg"
 width="600.000000pt" height="215.000000pt" viewBox="0 0 600.000000 215.000000"
 preserveAspectRatio="xMidYMid meet">

<g transform="translate(0.000000,215.000000) scale(0.100000,-0.100000)"
fill="#000000" stroke="none">
<path d="M470 1151 c0 -944 -1 -1000 -17 -1004 -17 -4 -17 -5 0 -6 24 -1 21
-18 -5 -25 -13 -3 -119 -6 -235 -6 -183 0 -213 -2 -213 -15 0 -13 27 -15 180
-15 151 0 180 -2 180 -15 0 -12 5 -12 40 0 22 8 40 10 40 5 0 -6 7 -10 15 -10
10 0 15 -10 15 -30 l0 -30 2765 0 2765 0 0 1075 0 1075 -2565 0 -2565 0 0
-1000 c0 -657 -3 -1000 -10 -1000 -6 0 -11 346 -13 1003 l-2 1002 -3 -1003
c-2 -883 0 -1003 13 -1008 8 -4 15 -12 15 -19 0 -10 -22 -12 -102 -8 -57 3
-104 7 -106 8 -1 1 -2 457 -2 1014 l0 1011 -95 0 -95 0 0 -999z m777 -997 c-3
-3 -12 -4 -19 -1 -8 3 -5 6 6 6 11 1 17 -2 13 -5z m13 -24 c0 -5 -10 -10 -22
-9 -22 0 -22 1 -3 9 11 5 21 9 23 9 1 1 2 -3 2 -9z m-440 -60 c0 -11 -43 -12
-115 0 -47 7 -45 7 33 9 49 0 82 -3 82 -9z m6 -20 c32 0 44 -4 44 -15 0 -12
-19 -15 -109 -15 -106 0 -109 1 -104 21 6 20 11 21 66 15 33 -3 80 -6 103 -6z
m432 -7 c2 -8 -5 -13 -17 -13 -12 0 -21 6 -21 16 0 18 31 15 38 -3z"/>
<path d="M208 13 c7 -3 16 -2 19 1 4 3 -2 6 -13 5 -11 0 -14 -3 -6 -6z"/>
</g>
</svg>
